<?xml version="1.0" standalone="no"?>
<!DOCTYPE svg PUBLIC "-//W3C//DTD SVG 20010904//EN"
 "http://www.w3.org/TR/2001/REC-SVG-20010904/DTD/svg10.dtd">
<svg version="1.0" xmlns="http://www.w3.org/2000/svg"
 width="700.000000pt" height="700.000000pt" viewBox="0 0 700.000000 700.000000"
 preserveAspectRatio="xMidYMid meet">
<metadata>
Created by potrace 1.14, written by Peter Selinger 2001-2017
</metadata>
<g transform="translate(0.000000,700.000000) scale(0.100000,-0.100000)"
fill="#000000" stroke="none">
<path d="M958 6990 c-114 -14 -229 -49 -343 -104 -230 -113 -388 -271 -501
-501 -57 -119 -87 -221 -104 -355 -14 -117 -14 -4943 0 -5060 31 -250 140
-477 311 -649 125 -125 321 -239 481 -280 163 -42 171 -42 2763 -39 2360 4
2494 5 2565 22 231 55 404 151 557 309 151 155 238 317 285 532 17 79 21 141
25 487 l5 398 -1556 0 -1556 0 0 390 0 390 1555 0 1556 0 -4 1758 c-3 1742 -3
1758 -24 1847 -53 226 -148 399 -306 552 -155 150 -313 235 -537 289 -71 17
-203 18 -2590 20 -1383 1 -2545 -2 -2582 -6z m1457 -2620 l880 -880 -870 -870
-870 -870 -283 277 -284 278 591 590 591 590 -602 602 -603 603 280 280 c154
154 282 280 285 280 3 0 401 -396 885 -880z"/>
</g>
</svg>
